<svg xmlns="http://www.w3.org/2000/svg" width="512" height="512" viewBox="0 0 512 512">
  <defs>
    <linearGradient id="bg" x1="0" y1="0" x2="1" y2="1">
      <stop stop-color="#151a3d"/><stop offset="1" stop-color="#080b1d"/>
    </linearGradient>
    <linearGradient id="gem" x1="0" y1="0" x2="1" y2="1">
      <stop stop-color="#75e7ff"/><stop offset=".48" stop-color="#895cff"/><stop offset="1" stop-color="#ff9bd7"/>
    </linearGradient>
    <filter id="glow"><feGaussianBlur stdDeviation="12" result="b"/><feMerge><feMergeNode in="b"/><feMergeNode in="SourceGraphic"/></feMerge></filter>
  </defs>
  <rect width="512" height="512" rx="112" fill="url(#bg)"/>
  <circle cx="256" cy="228" r="142" fill="#715cff" opacity=".14" filter="url(#glow)"/>
  <path d="M112 210h288v205a35 35 0 0 1-35 35H147a35 35 0 0 1-35-35z" fill="#352767" stroke="#b28aff" stroke-width="15"/>
  <path d="M91 176c0-28 23-51 51-51h228c28 0 51 23 51 51v64H91z" fill="#5b3e9c" stroke="#d2b4ff" stroke-width="16"/>
  <path d="M256 213l70 76-70 90-70-90z" fill="url(#gem)" stroke="#fff" stroke-width="10" filter="url(#glow)"/>
  <path d="M256 227v134M198 289h116" stroke="#fff" stroke-width="5" opacity=".5"/>
  <path d="M142 125l24-49 24 49M322 125l24-49 24 49" fill="#ffc45e" stroke="#ffdf93" stroke-width="8" stroke-linejoin="round"/>
</svg>
